<mxfile host="app.diagrams.net" agent="Mozilla/5.0 (Macintosh; Intel Mac OS X 10_15_7) AppleWebKit/537.36 (KHTML, like Gecko) Chrome/137.0.0.0 Safari/537.36" version="27.1.6">
  <diagram name="第 1 页" id="eZL3j8_-c6MVg9rouvLk">
    <mxGraphModel dx="1181" dy="643" grid="1" gridSize="10" guides="1" tooltips="1" connect="1" arrows="1" fold="1" page="1" pageScale="1" pageWidth="827" pageHeight="1169" math="0" shadow="0">
      <root>
        <mxCell id="0" />
        <mxCell id="1" parent="0" />
        <mxCell id="xwBEgNgyEx7FRxkO31FA-1" value="Test" style="text;html=1;align=center;verticalAlign=middle;whiteSpace=wrap;rounded=0;" vertex="1" parent="1">
          <mxGeometry x="40" y="30" width="80" height="30" as="geometry" />
        </mxCell>
        <mxCell id="xwBEgNgyEx7FRxkO31FA-2" value="权限平台" style="rounded=0;whiteSpace=wrap;html=1;" vertex="1" parent="1">
          <mxGeometry x="80" y="80" width="80" height="30" as="geometry" />
        </mxCell>
        <mxCell id="xwBEgNgyEx7FRxkO31FA-3" value="表单引擎" style="rounded=0;whiteSpace=wrap;html=1;" vertex="1" parent="1">
          <mxGeometry x="190" y="80" width="80" height="30" as="geometry" />
        </mxCell>
        <mxCell id="xwBEgNgyEx7FRxkO31FA-4" value="流程引擎" style="rounded=0;whiteSpace=wrap;html=1;" vertex="1" parent="1">
          <mxGeometry x="300" y="80" width="80" height="30" as="geometry" />
        </mxCell>
        <mxCell id="xwBEgNgyEx7FRxkO31FA-5" value="消息中心" style="rounded=0;whiteSpace=wrap;html=1;" vertex="1" parent="1">
          <mxGeometry x="400" y="80" width="80" height="30" as="geometry" />
        </mxCell>
        <mxCell id="xwBEgNgyEx7FRxkO31FA-6" value="" style="shape=image;verticalLabelPosition=bottom;labelBackgroundColor=default;verticalAlign=top;aspect=fixed;imageAspect=0;image=data:image/png,iVBORw0KGgoAAAANSUhEUgAABnoAAAE+CAYAAACqUs5pAAAMTWlDQ1BJQ0MgUHJvZmlsZQAASImVVwdYU8kWnltSSQgQiICU0JsgIiWAlBBaAOlFEJWQBAglxoSgYkcXV3DtIoJlRVdBFDsgYsOuLIrdtSwWVFbWxXWxK29CAF32le/N982d//5z5p9zzp259w4AjA6BTJaLagGQJ82Xx4YEsCckp7BJXYAIMEADBsBBIFTIuNHREQCWwfbv5c1NgKjaa44qrX/2/9eiLRIrhAAg0RCnixTCPIgPAoA3C2XyfACIMshbTM+XqfAaiHXl0EGIq1U4U42bVThdja/028TH8iB+AgCZJhDIMwHQ7IE8u0CYCXUYMFrgLBVJpBD7Q+yblzdVBPF8iG2hDZyTodLnpH+jk/k3zfQhTYEgcwirY+kv5ECJQpYrmPl/puN/l7xc5eAcNrDSsuShsaqYYd6e5EwNV2EaxO+k6ZFREOsAgOISUb+9CrOylKEJanvUVqjgwZwBFsTjFLlx/AE+ViQIDIfYCOIMaW5kxIBNUYYkWGUD84eWS/L58RDrQ1wtVgTFDdickE+NHZz3Zoacxx3gnwvk/T6o9L8ocxK4an1MJ0vMH9DHnAqz4pMgpkIcWCBJjIRYE+JIRU5c+IBNamEWL3LQRq6MVcViCbFcLA0JUOtjZRny4NgB+515isHYsRNZEn7kAL6anxUfqs4V9kQo6PcfxoL1iKXchEEdsWJCxGAsInFgkDp2nCyWJsSpeVxflh8Qqx6L28tyowfs8QBxboiKN4c4XlEQNzi2IB8uTrU+XizLj45X+4lXZAvCotX+4HtBBOCBQMAGSljTwVSQDSRt3Q3d8E7dEwwEQA4ygRg4DjCDI5L6e6TwGgcKwe8QiYFiaFxAf68YFED+8zBWxUmGOPXVEWQM9KlUcsBTiPNAOMiF98p+JemQB4ngCWQk//BIAKsQxpALq6r/3/OD7FeGC5mIAUY5OCObMWhJDCIGEkOJwUQ73BD3xb3xCHj1h9UF5+Ceg3F8tSc8JbQTHhFuEDoId6ZIiuTDvBwPOqB+8EB+0r/ND24NNd3wANwHqkNlnIUbAkfcFc7Dxf3gzG6Q5Q34rcoKe5j23yL45gkN2FGcKShlBMWfYjt8pKa9ptuQiirX3+ZH7Wv6UL55Qz3D5+d9k30RbMOHW2LfYwewc9hJ7ALWjDUANnYca8RasaMqPLTinvSvuMHZYvv9yYE6w9fM1yeryqTCuda5y/mTui9fPCNftRl5U2Uz5ZLMrHw2F34xxGy+VOg0iu3i7OIGgOr7o369vY7p/64grNav3MJfAfA53tfXd+QrF3YcgH0e8JVw+Ctny4GfFg0Azh8WKuUFag5XXQjwzcGAu88AmAALYAvjcQHuwBv4gyAQBqJAPEgGk6H3WXCdy8F0MBssAMWgFKwAa0EF2Ay2gmqwG+wHDaAZnARnwSVwBdwAd+Hq6QQvQA94Az4iCEJC6AgTMUBMESvEAXFBOIgvEoREILFIMpKGZCJSRInMRhYipcgqpALZgtQg+5DDyEnkAtKO3EEeIl3In8gHFENpqC5qjFqjo1EOykXD0Xh0EpqJTkML0UXoMrQcrUJ3ofXoSfQSegPtQF+gvRjANDAWZoY5YhyMh0VhKVgGJsfmYiVYGVaF1WFN8Dlfwzqwbuw9TsSZOBt3hCs4FE/Ahfg0fC6+FK/Aq/F6/DR+DX+I9+BfCHSCEcGB4EXgEyYQMgnTCcWEMsJ2wiHCGbiXOglviEQii2hD9IB7MZmYTZxFXErcSNxDPEFsJz4m9pJIJAOSA8mHFEUSkPJJxaT1pF2k46SrpE7SO7IG2ZTsQg4mp5Cl5CJyGXkn+Rj5KvkZ+SNFi2JF8aJEUUSUmZTllG2UJsplSiflI1WbakP1ocZTs6kLqOXUOuoZ6j3qaw0NDXMNT40YDYnGfI1yjb0a5zUearyn6dDsaTxaKk1JW0bbQTtBu0N7TafTren+9BR6Pn0ZvYZ+iv6A/k6TqemkydcUac7TrNSs17yq+ZJBYVgxuIzJjEJGGeMA4zKjW4uiZa3F0xJozdWq1DqsdUurV5upPUY7SjtPe6n2Tu0L2s91SDrWOkE6Ip1FOlt1Tuk8ZmJMCyaPKWQuZG5jnmF26hJ1bXT5utm6pbq7ddt0e/R09Fz1EvVm6FXqHdXrYGEsaxaflctaztrPusn6MMJ4BHeEeMSSEXUjro54qz9S319frF+iv0f/hv4HA7ZBkEGOwUqDBoP7hrihvWGM4XTDTYZnDLtH6o70HikcWTJy/8hfjFAje6NYo1lGW41ajXqNTYxDjGXG641PGXebsEz8TbJN1pgcM+kyZZr6mkpM15geN/2NrcfmsnPZ5ezT7B4zI7NQM6XZFrM2s4/mNuYJ5kXme8zvW1AtOBYZFmssWix6LE0tx1vOtqy1/MWKYsWxyrJaZ3XO6q21jXWS9WLrBuvnNvo2fJtCm1qbe7Z0Wz/babZVttftiHYcuxy7jXZX7FF7N/ss+0r7yw6og7uDxGGjQ/sowijPUdJRVaNuOdIcuY4FjrWOD51YThFORU4NTi9HW45OGb1y9LnRX5zdnHOdtznfHaMzJmxM0ZimMX+62LsIXSpdro+ljw0eO29s49hXrg6uYtdNrrfdmG7j3Ra7tbh9dvdwl7vXuXd5WHqkeWzwuMXR5URzlnLOexI8AzzneTZ7vvdy98r32u/1h7ejd473Tu/n42zGicdtG/fYx9xH4LPFp8OX7Zvm+6Nvh5+Zn8Cvyu+Rv4W/yH+7/zOuHTebu4v7MsA5QB5wKOAtz4s3h3ciEAsMCSwJbAvSCUoIqgh6EGwenBlcG9wT4hYyK+REKCE0PHRl6C2+MV/Ir+H3hHmEzQk7HU4LjwuvCH8UYR8hj2gaj44PG796/L1Iq0hpZEMUiOJHrY66H20TPS36SAwxJjqmMuZp7JjY2bHn4phxU+J2xr2JD4hfHn83wTZBmdCSyEhMTaxJfJsUmLQqqWPC6AlzJlxKNkyWJDemkFISU7an9E4Mmrh2YmeqW2px6s1JNpNmTLow2XBy7uSjUxhTBFMOpBHSktJ2pn0SRAmqBL3p/PQN6T1CnnCd8IXIX7RG1CX2Ea8SP8vwyViV8TzTJ3N1ZleWX1ZZVreEJ6mQvMoOzd6c/TYnKmdHTl9uUu6ePHJeWt5hqY40R3p6qsnUGVPbZQ6yYlnHNK9pa6f1yMPl2xWIYpKiMV8X/ui3Km2V3ykfFvgWVBa8m544/cAM7RnSGa0z7WcumfmsMLjwp1n4LOGsltlmsxfMfjiHO2fLXGRu+tyWeRbzFs3rnB8yv3oBdUHOgp+LnItWFf21MGlh0yLjRfMXPf4u5LvaYs1iefGtxd6LN3+Pfy/5vm3J2CXrl3wpEZVcLHUuLSv9tFS49OIPY34o/6FvWcaytuXuyzetIK6Qrri50m9l9SrtVYWrHq8ev7p+DXtNyZq/1k5Ze6HMtWzzOuo65bqO8ojyxvWW61es/1SRVXGjMqByzwajDUs2vN0o2nh1k/+mus3Gm0s3f/hR8uPtLSFb6qusq8q2ErcWbH26LXHbuZ84P9VsN9xeuv3zDumOjurY6tM1HjU1O412Lq9Fa5W1XbtSd13ZHbi7sc6xbsse1p7SvWCvcu9v+9L23dwfvr/lAOdA3UGrgxsOMQ+V1CP1M+t7GrIaOhqTG9sPhx1uafJuOnTE6ciOZrPmyqN6R5cfox5bdKzveOHx3hOyE90nM08+bpnScvfUhFPXT8ecbjsTfub82eCzp85xzx0/73O++YLXhcMXORcbLrlfqm91az30s9vPh9rc2+ove1xuvOJ5pal9XPuxq35XT14LvHb2Ov/6pRuRN9pvJty8fSv1Vsdt0e3nd3LvvPql4JePd+ffI9wrua91v+yB0YOqX+1+3dPh3nH0YeDD1kdxj+4+Fj5+8UTx5FPnoqf0p2XPTJ/VPHd53twV3HXlt4m/db6QvfjYXfy79u8bXtq+PPiH/x+tPRN6Ol/JX/X9ufS1wesdf7n+1dIb3fvgTd6bj29L3hm8q37PeX/uQ9KHZx+nfyJ9Kv9s97npS/iXe315fX0ygVzQ/yuAAdXRJgOAP3cAQE8GgAnPjdSJ6vNhf0HUZ9p+BP4TVp8h+4s7AHXwnz6mG/7d3AJg7zYArKE+IxWAaDoA8Z4AHTt2qA6e5frPnapChGeDHyM/p+elg39T1GfSb/we3gKVqisY3v4LJAqDC64Ol8UAAABsZVhJZk1NACoAAAAIAAQBGgAFAAAAAQAAAD4BGwAFAAAAAQAAAEYBKAADAAAAAQACAACHaQAEAAAAAQAAAE4AAAAAAAAAkAAAAAEAAACQAAAAAQACoAIABAAAAAEAAAZ6oAMABAAAAAEAAAE+AAAAAKRn7uYAAAAJcEhZcwAAFiUAABYlAUlSJPAAAEAASURBVHgB7d0HvDRXXT/gCYTyYqSIEQggiSEUKQGRJh1CkRIgIL0pUkIvoRdpglJDkxoMHRQpoTcpRhCQEiBABAyoCWAUAiT/N4GU//2OOfvO3Xd37+zu7Oy9d5/z+dy7e3dnzpl9Zufcmfmdske1K+2x62mV5+UnLzffayzmKQECBAgQIECAAAECBAgQIECAAAECBAgQIECAwIIEzj4n3zyWn1JU/V4J4DQfz7W2RP7OY3le3i8reyRAgAABAgQIECBAgAABAgQIECBAgAABAgQIEFisQAnunLVWTH7yd3lMyWcngFOCOCWwk8c9137OvfZTXmsut/ayRIAAAQIECBAgQIAAAQIECBAgQIAAAQIECBAgsECB4SDPmWtlnbH2U4I+eawDOnlMICdBnQR3znPOT4I9zYBPCQitvSwRIECAAAECBAgQIECAAAECBAgQIECAAAECBAgsUKD03ikBngR5Esv59Tll1oGgBHKSSs+dBHnO+8IXvnDf+9///k/fa6+9rrvnnnvuXS8xw6+dO3fWa+3YsWOGtedbZVXLjtoxxxxTHXjggfMBzrD2qpov83Pb36tVt9jf9vcMVfNMqyyzXlvVsh3fju+ZDtYZVlrVY2yZn9vx7fie4VCdaZVlfs9XtWzHt+N7poN1hpVW9Rhb5ud2fDu+ZzhUZ1plmd/zVS17qx7fZ5xxxkmnnHLK54844ohnHXbYYT845wtXevucmUBPGZYtz8+TIM+jH/3oT5zrXOe68DkLeyBAgAABAgQIECBAgAABAgQIECBAgAABAgQIEFiCQDrkXPjCFz54LXZzw7XiD1oL9hy/9liGb9sjPXmaw7btmZ48gjxL2FOKJECAAAECBAgQIECAAAECBAgQIECAAAECBAiMEUjsJjGctbfXTbvTDPTk+Z4Zrm1MHl4mQIAAAQIECBAgQIAAAQIECBAgQIAAAQIECBBYksA5MZwEesqUPHWPnmzOoFfPPHPyLOlzKZYAAQIECBAgQIAAAQIECBAgQIAAAQIECBAgsO0FzonhnHvtg5aOPIMnZZ6evCERIECAAAECBAgQIECAAAECBAgQIECAAAECBAhsToES5KljO83ATgn2bM7NtlUECBAgQIAAAQIECBAgQIAAAQIECBAgQIAAAQLr4jnNQA8aAgQIECBAgAABAgQIECBAgAABAgQIECBAgACBLSQg0LOFdpZNJUCAAAECBAgQIECAAAECBAgQIECAAAECBAg0BQR6mhqeEyBAgAABAgQIECBAgAABAgQIECBAgAABAgS2kIBAzxbaWTaVAAECBAgQIECAAAECBAgQIECAAAECBAgQINAUEOhpanhOgAABAgQIECBAgAABAgQIECBAgAABAgQIENhCAgI9W2hn2VQCBAgQIECAAAECBAgQIECAAAECBAgQIECAQFNAoKep4TkBAgQIECBAgAABAgQIECBAgAABAgQIECBAYAsJCPRsoZ1lUwkQIECAAAECBAgQIECAAAECBAgQIECAAAECTQGBnqaG5wQIECBAgAABAgQIECBAgAABAgQIECBAgACBLSQg0LOFdpZNJUCAAAECBAgQIECAAAECBAgQIECAAAECBAg0BQR6mhqeEyBAgAABAgQIECBAgAABAgQIECBAgAABAgS2kIBAzxbaWTaVAAECBAgQIECAAAECBAgQIECAAAECBAgQINAUEOhpanhOgAABAgQIECBAgAABAgQIECBAgAABAgQIENhCAgI9W2hn2VQCBAgQIECAAAECBAgQIECAAAECBAgQIECAQFNAoKep4TkBAgQIECBAgAABAgQIECBAgAABAgQIECBAYAsJCPRsoZ1lUwkQIECAAAECBAgQIECAAAECBAgQIECAAAECTQGBnqaG5wQIECBAgAABAgQIECBAgAABAgQIECBAgACBLSQg0LOFdpZNJUCAAAECBAgQIECAAAECBAgQIECAAAECBAg0BQR6mhqeEyBAgAABAgQIECBAgAABAgQIECBAgAABAgS2kMCew9u6c+fO4Zfm/nsRebbdKGW3lepuOebdWbbNiXlbqe6WY96dZducmLeV6m455t1Zts2JeVup7pZj3p1l25yYt5Xqbjnm3Vm2zYl5W6nulmPenWXbnJi3lepuOebdWbbNiXlbqe6WY96dZducmLeV6m65RZjr0dPd/pETAQIECBAgQIAAAQIECBAgQIAAAQIECBAgQKBXgd169OzYsaOzDSiRqS7zbLtxq1p28WFeJBb/uMzvWvl09neRWPyj/d3d/4i2e2uZ5sssu/g4vovE4h/tb8f34r9l60twfK/3WORfjm/H9yK/X6PydnyPUlnMa45vx/divlnjc3V8j7fp+h3Ht+O76+/URvk5vjcS6u59x3f3x7cePd19P+VEgAABAgQIECBAgAABAgQIECBAgAABAgQIEOhVQKCnV26FESBAgAABAgQIECBAgAABAgQIECBAgAABAgS6ExDo6c5STgQIECBAgAABAgQIECBAgAABAgQIECBAgACBXgUEenrlVhgBAgQIECBAgAABAgQIECBAgAABAgQIECBAoDsBgZ7uLOVEgAABAgQIECBAgAABAgQIECBAgAABAgQIEOhVQKCnV26FESBAgAABAgQIECBAgAABAgQIECBAgAABAgS6ExDo6c5STgQIECBAgAABAgQIECBAgAABAgQIECBAgACBXgUEenrlVhgBAgQIECBAgAABAgQIECBAgAABAgQIECBAoDsBgZ7uLOVEgAABAgQIECBAgAABAgQIECBAgAABAgQIEOhVQKCnV26FESBAgAABAgQIECBAgAABAgQIECBAgAABAgS6ExDo6c5STgQIECBAgAABAgQIECBAgAABAgQIECBAgACBXgUEenrlVhgBAgQIECBAgAABAgQIECBAgAABAgQIECBAoDsBgZ7uLOVEgAABAgQIECBAgAABAgQIECBAgAABAgQIEOhVQKCnV26FESBAgAABAgQIECBAgAABAgQIECBAgAABAgS6ExDo6c5STgQIECBAgAABAgQIECBAgAABAgQIECBAgACBXgUEenrlVhgBAgQIECBAgAABAgQIECBAgAABAgQIECBAoDsBgZ7uLOVEgAABAgQIECBAgAABAgQIECBAgAABAgQIEOhVQKCnV26FESBAgAABAgQIECBAgAABAgQIECBAgAABAgS6ExDo6c5STgQIECBAgAABAgQIECBAgAABAgQIECBAgACBXgUEenrlVhgBAgQIECBAgAABAgQIECBAgAABAgQIECBAoDsBgZ7uLOVEgAABAgQIECBAgAABAgQIECBAgAABAgQIEOhVQKCnV26FESBAgAABAgQIECBAgAABAgQIECBAgAABAgS6ExDo6c5STgQIECBAgAABAgQIECBAgAABAgQIECBAgACBXgUEenrlVhgBAgQIECBAgAABAgQIECBAgAABAgQIECBAoDsBgZ7uLOVEgAABAgQIECBAgAABAgQIECBAgAABAgQIEOhVQKCnV26FESBAgAABAgQIECBAgAABAgQIECBAgAABAgS6ExDo6c5STgQIECBAgAABAgQIECBAgAABAgQIECBAgACBXgUEenrlVhgBAgQIECBAgAABAgQIECBAgAABAgQIECBAoDuBPYez2rlz5/BLc/+9iDzbbpSy20p1txzz7izb5sS8rVR3yzHvzrJtTszbSnW3HPPuLNvmxLytVHfLMe/Osm1OzNtKdbcc8+4s2+bEvK1Ud8sx786ybU7M20p1txzz7izb5sS8rVR3yzHvzrJtTszbSnW33CLM9ejpbv/IiQABAgQIECBAgAABAgQIECBAgAABAgQIECDQq8BuPXp27NjR2QaUyFSXebbduFUtu/gwLxKLf1zmd618Ovu7SCz+0f7u7n9E2721TPNlll18HN9FYvGP9rfje/HfsvUlOL7XeyzyL8e343uR369ReTu+R6ks5jXHt+N7Md+s8bk6vsfbdP2O49vx3fV3aqP8HN8bCXX3vuO7++Nbj57uvp9yIkCAAAECBAgQIECAAAECBAgQIECAAAECBAj0KiDQ0yu3wggQIECAAAECBAgQIECAAAECBAgQIECAAAEC3QkI9HRnKScCBAgQIECAAAECBAgQIECAAAECBAgQIECAQK8CAj29ciuMAAECBAgQIECAAAECBAgQIECAAAECBAgQINCdgEBPd5ZyIkCAAAECBAgQIECAAAECBAgQIECAAAECBAj0KiDQ0yu3wggQIECAAAECBAgQIECAAAECBAgQIECAAAEC3QkI9HRnKScCBAgQIECAAAECBAgQIECAAAECBAgQIECAQK8CAj29ciuMAAECBAgQIECAAAECBAgQIECAAAECBAgQINCdgEBPd5ZyIkCAAAECBAgQIECAAAECBAgQIECAAAECBAj0KiDQ0yu3wggQIECAAAECBAgQIECAAAECBAgQIECAAAEC3QkI9HRnKScCBAgQIECAAAECBAgQIECAAAECBAgQIECAQK8CAj29ciuMAAECBAgQIECAAAECBAgQIECAAAECBAgQINCdgEBPd5ZyIkCAAAECBAgQIECAAAECBAgQIECAAAECBAj0KiDQ0yu3wggQIECAAAECBAgQIECAAAECBAgQIECAAAEC3QkI9HRnKScCBAgQIECAAAECBAgQIECAAAECBAgQIECAQK8CAj29ciuMAAECBAgQIECAAAECBAgQIECAAAECBAgQINCdgEBPd5ZyIkCAAAECBAgQIECAAAECBAgQIECAAAECBAj0KiDQ0yu3wggQIECAAAECBAgQIECAAAECBAgQIECAAAEC3QkI9HRnKScCBAgQIECAAAECBAgQIECAAAECBAgQIECAQK8CAj29ciuMAAECBAgQIECAAAECBAgQIECAAAECBAgQINCdgEBPd5ZyIkCAAAECBAgQIECAAAECBAgQIECAAAECBAj0KiDQ0yu3wggQIECAAAECBAgQIECAAAECBAgQIECAAAEC3QkI9HRnKScCBAgQIECAAAECBAgQIECAAAECBAgQIECAQK8CAj29ciuMAAECBAgQIECAAAECBAgQIECAAAECBAgQINCdgEBPd5ZyIkCAAAECBAgQIECAAAECBAgQIECAAAECBAj0KiDQ0yu3wggQIECAAAECBAgQIECAAAECBAgQIECAAAEC3QkI9HRnKScCBAgQIECAAAECBAgQIECAAAECBAgQIECAQK8CAj29ciuMAAECBAgQIECAAAECBAgQIECAAAECBAgQINCdwJ7dZSWnZQt8+tOfrg4++ODqrLPOqs51rv5jeGeffXZNsMcee/ROsaplB9r+7vfrtszvWtnfl7zkJavjjjuu3w++gqWlTr3d7W5Xf/Jl1Gtlf6vP+/vybYbj2/7uf3/vs88+6tQe2Jddpzq+nZ/38DUfFLHK5+erVKe6/q6qZZwjq8/V54PKtocnqc9df/cArQgCBDoR2C3Qc8wxx3SSsUz6F/j+979f/fKXv+y/YCUSINCrwOmnn16pqxdPnjr1lFNOWXxBSiBAYKkCy6xTV6kuV6cu9WuucAK9CSyzTu3tQ55TkOvvvsWVR2A5AqtUry1HeHOVukrn55tLfjlbs932926BngMPPLAz2Z07d9Z57dixo7M822a0imX/7Gc/a8tjOQIEtrDA+c53vqrLuroNhTq1jZJlCBDYigLLqFPjlIuKvuvylLus+tx5avQlAttfYBl1qnpt+3+vfEICyxRYpXotzsuqU5dddspftfPzZZsv87u2Xff3boGefFBp6wtc7nKXq97//vdv/Q/iExAgUAuceOKJ1U1uchMaSxJQpy4JXrEEFiSgTl0QbMts1aktoSxGYIsIqFOrSr22Rb6sNpNASwH1WksoixEgsKkEBHo21e7odmNysikRILA9BHKiKS1XQJ26XH+lE+hSQJ3apeZsealTZ3OzFoHNKKBO/b+9ol7bjN9O20RgNgH12mxu1iJAYLkC51pu8UonQIAAAQIECBAgQIAAAQIECBAgQIAAAQIECBCYVUCgZ1Y56xEgQIAAAQIECBAgQIAAAQIECBAgQIAAAQIEliwg0LPkHaB4AgQIECBAgAABAgQIECBAgAABAgQIECBAgMCsAgI9s8pZjwABAgQIECBAgAABAgQIECBAgAABAgQIECCwZAGBniXvAMUTIECAAAECBAgQIECAAAECBAgQIECAAAECBGYVEOiZVc56BAgQIECAAAECBAgQIECAAAECBAgQIECAAIElCwj0LHkHKJ4AAQIECBAgQIAAAQIECBAgQIAAAQIECBAgMKuAQM+sctYjQIAAAQIECBAgQIAAAQIECBAgQIAAAQIECCxZQKBnyTtA8QQIECBAgAABAgQIECBAgAABAgQIECBAgACBWQUEemaVsx4BAgQIECBAgAABAgQIECBAgAABAgQIECBAYMkCAj1L3gGKJ0CAAAECBAgQIECAAAECBAgQIECAAAECBAjMKiDQM6uc9QgQIECAAAECBAgQIECAAAECBAgQIECAAAECSxYQ6FnyDlA8AQIECBAgQIAAAQIECBAgQIAAAQIECBAgQGBWAYGeWeWsR4AAAQIECBAgQIAAAQIECBAgQIAAAQIECBBYsoBAz5J3gOIJECBAgAABAgQIECBAgAABAgQIECBAgAABArMKCPTMKmc9AgQIECBAgAABAgQIECBAgAABAgQIECBAgMCSBQR6lrwDFE+AAAECBAgQIECAAAECBAgQIECAAAECBAgQmFVAoGdWOesRIECAAAECBAgQIECAAAECBAgQIECAAAECBJYsINCz5B2geAIECBAgQIAAAQIECBAgQIAAAQIECBAgQIDArAICPbPKWY8AAQIECBAgQIAAAQIECBAgQIAAAQIECBAgsGQBgZ4l7wDFEyBAgAABAgQIECBAgAABAgQIECBAgAABAgRmFRDomVXOegQIECBAgAABAgQIECBAgAABAgQIECBAgACBJQsI9Cx5ByieAAECBAgQIECAAAECBAgQIECAAAECBAgQIDCrgEDPrHLWI0CAAAECBAgQIECAAAECBAgQIECAAAECBAgsWUCgZ8k7QPEECBAgQIAAAQIECBAgQIAAAQIECBAgQIAAgVkFBHpmlbMeAQIECBAgsKkFTj/99OrMM8/c1Nu47I375S9/We3cuXPZm6F8AgTWBE477bTq2GOPrU488UQeW1RAnbpFd5zN3rYCv/71r7ftZ/PBCBAgQIDAsMCewy8s4mJ/EXkOb/e4v1ep7NzQWpV03HHHVQ94wAPqj3v1q1+9eulLX7oqH31bf86ciN/udrerLnShC1V3vetdq1vd6lbVBS5wgW39mWf5cGefffbSbsyqU2fZY9tnnVvf+tb1hznvec9b/e3f/m11kYtcpJcP981vfrN6/vOfX/3mb/5m9YpXvKLaY489WpX7Z3/2Z9UnPvGJ6k//9E+r+973vtUVr3jFVuv1udB//ud/Vne4wx3qIvP/7PWvf/1Uxb/yla+snvSkJ9X15je+8Y3qwhe+cL3+v/zLv1TXve516+dvetObqnvf+94j843Le97znup3fud3qre97W3VzW52s5HLbecX1an97N3tfp764x//uDrf+c43c734oAc9qHrta19b74y73e1u1dvf/vZedszPf/7z6j/+4z+qq1zlKr2Ut+hC1KmLFt44/1WqU7d7vZb64ayzzpq5Xsu35YwzzqjPwco1xGte85pq77333viL1MESKfNiF7tYndOVrnSl6tnPfnZ10EEHdZDz/Fnk3O9973tfndFRRx1VXwPPn+tsOfzP//xP9Td/8zfVn/zJn2zKc+XZPlW3a61SvdaUK8dt87W+niu7L+ld5TDfZdHXs0WY7xbo6evDKIfAPAKnnnpq9U//9E91Fscff3zvgZ5f/epX1Uc/+tHWH+GiF71o9Ud/9EfVZz/72SrrzpqST24ETko/+MEPqpyI9J0ufelLV3vuOV+V8oxnPGPg+nd/93fVM5/5zOrpT3963x9FeQQIjBH48Ic/PHgnLc77CPQkeHHVq151UO6Vr3zl6tBDDx38Pe7J17/+9Tpwkff/+q//urrgBS849cXr97///epb3/rWuCJavZ7AyaSAdS6uv/KVr9R5/fd///fEPH/6059Wn/zkJ9ctk7/Tgjw/r3vd66p99923fv/b3/72YLnPfe5z1fnPf/7B35e//OVr06yTIE9Syv693/u9wTKeECDQXuBLX/pSHSRNQ5V/+Id/qK51rWu1X/mcJXPzsQR63vGOd9RB7Zz3dZ1+9rOfVQkE55w09Ue2Penkk0+uA8ZHH310leD6rCkNdcb9b1CnzqpqPQL9C5xwwgnVTW960+pHP/pRlUDEjW9845EbkTokjX8e85jHVJe97GV3WybXvmlIUtLhhx9enq57THkHH3xwdfe7371u0Jn6dN6U7c65TlLqvQMOOGDeLDtbv3lPYJm9ON/97ndX97vf/QbnkV/4wheqffbZp7PPKSMCBAgQ6Fdgt7uyO3bs6GwLSmSqyzzbbtwqlp1WhNIugSOPPLLKBeU8Kb1LRl2s/+IXv6hPRNvmffOb37z62Mc+Vt32trcdnGy2Xbe5XLYnJ6zjUm7Clhb345ZZ1OtpQXmpS11q5uxzs+G5z33uYP3rXOc61ROe8ITB357sEkhvhr7rVXXqLn/P+hVIK/MHP/jB1atf/eq64Ic85CF14PzAAw+cuCFPfvKTB++nt8qjHvWowd9tn3zgAx+Yab1m/mmMUIIvzddneZ687nKXu4xd9fGPf/zI92JX/LJA6tfPf/7zg8B6XkuQZ7/99svTlUvLqFMLct91ecpdVn2+Xc9Tv/e97w3OFXND8drXvnaVnnapq6ZJad2duqoEfBPseehDHzpNFoNlM2Rlbhymzvj3f//3+nz43/7t3+oAzrjgdYK+udn3spe9rPr7v//7QV7TPrnJTW4yNtCjTp1Wc2suv4w6Vb3W7Xfl//2//1efK/zXf/1XnXGO6xe/+MX1OVGzV/Vf/MVfVM961rPqZTLiRnpRN9+fZquSVxq+5OeLX/xilUZ/k1J6GpUgzrjlSvA87ydolV7P6aXUJqX3+jL+R7fZti6Xyf+L4pj9nfsW//zP/zzoId5lWVs5r1Wq17KfllWnLrvs8h1dxrG/qubL/NzbdX/vFugpH9Qjga0ukJPDZuvzWT7P7/7u7w4u3mdZv+91clK+FVNuatzjHvcYbHqGZ3rXu95VD4EyeNETAgQ6E0hvlwznNU/KcGGXu9zlpsoirTSvcY1rTLVOFn7Ri15Utz4vNygPOeSQ6mtf+1o9lNuozHKB+sEPfnDwVoZ7m9SrZrDgij1p3szNzeAyvMkkhu985ztjb+JOWs97BLarwGUuc5nqsY99bF1Plc+YAM0xxxxTB3xKb+c280QkIF2C1BlG54EPfGDJcuxjbj6VMrJQbn42/x674tAbabAjzSegTp3Pz9qbRyDnTE984hOrhz3sYYONSo+dBGDSe6f0Ek6AugR6/vEf/7F64xvfWAeMByu1fJLz0iOOOGKwdMraKP3kJz+ZqudJtq8Mb7tR3nn/EY94RO+jhrTZrq6XyXBtOc/O/7GknGvf8Y53rO+jlP3cdZnyI0CAAIHFCQj0LM5WziskMGrug0996lNVaQV1yUtecjeNtCoa9frwgrnw/vSnPz388si/c1I+S6+asp3JNK1J04Jp2nSuc51r2lXq5XNDIvNolBaseTE3aCfZZGi6D33oQ/UNlOc973nVRi37Z9owKxHYxgK5qZ+LunnS+9///qlX32uvvWYK9KRuy3BIZY6dbH8uwHOzYVRKEKqkDDVy5zvfufw51eMf/uEfVk996lOnWicLP+c5z5l6nTYrZNi6fPakDNOZ+vO9731vPcRTXkuA6xKXuESe1s/L/6YMXZcL+ZLSs+KUU07ZrbVssx4uyw4/LmNo0OFt8DeBzSRwnvOcp3rhC19YXf/616/uc5/7DFpGpyV5hkl785vfXA+RmED3NCk329qcj13zmtesb76WvHM+9gd/8AeDISHL683HNKjJPIg3utGN6rm8MjzmqOBQ6tl8ro3SpJ6GzXXVqU2N/3uuTt3dxCubQyAB61xj3elOdxpcp6WnYeq1DPeVc7MMKf60pz2tnvsmW506I3XLxS9+8dYfIucyhx122GD51CfpeSz1J5DAWu4HvOQlL6kLzb2HzOGYIffOfe5z97chSiJAgACBuQUEeuYmlMFmFch8Lzk5/au/+qt6E3NRm5tdG6XmUBs5gd0oJd9RLeMzCXYJoOREaThlwu02w+R85CMfaR3o+eM//uNqlhaZmV+nbGvfk3E/5SlPWdfyPuM23+AGNxjmWvd3xrFPq6ykzN+RVmDjxoNft6I/CBCoBWYNzPbFl4l7h1PGfU9rz/vf//51T570DBq1XOZPK3O4JY8MNZJhKYZTWsFvdPF6vetdr8rPtOmlL33p4GbvtOtOWj4BmvJ/I8GrMrdPWSe9UEuwP3P/5P9TUqzKemXZ3JgpKcuNupnb7BV7y1vessr3ZtTN4JKPRwKrLJCW7V/96lfrIXQzTFpSengkEJRzwj5T5oVM/fD7v//79ZwUGZrxrW996+BmberSZvB33LZlu9ssl96d5TOPyyuvq1N3zXOnTp30TfHeZhHIuUHqtQR7MsdNUs6zEsxJg5/Mo5NeiO985zvrOiBDgD360Y+u3v72t7f+CK961auqj3/844Pl//Iv/3LwfJon6YUyb8rQc2UYs3nz2mrrv+AFL6jvB5SeiRkdJeeO5V7KVvs8tpcAAQKrKiDQs6p7fgU+d+bWyU2vcnKSk7bM8zBp3ODcNMy8MOUEL+Osz5IyXns5Gc5Ntxve8IazZDP3OmklmOHcfuM3fmPuvJoZ5IQ/k3m3CYQ11xt+/prXvGawf/Jehm975CMfObzYbn+nhVkJ9CRAlVbr73vf+za8abtbRl4gsKICCQrnojqtKKdJuTFVUo7faeeeGQ42lLyaj7lhkJ56k1Lq6Ic//OH1z6Tl8l5ato9KueGYSce3YkrPnWaQJz0ckzKBenMS9TK+fYaMSqOBpNy4TYOAZq+jK1zhCnUvyXqBc35liLYS6EnL2rJ+cxnPCRBYL7D//vvX9UpugpZj9AEPeED14x//eGRdlHOYZk+6BEzS83GalON3OKVVdubaaZ7zZgz05lxdw+us8t/q1FXe+z77RgL77LNPlblUE8wuAZk0qEnv6QwxmeG90sO6NIxJr5973ete1W1uc5uNsq6OPfbYdcPDZb7WNOyZNqXBSnoZzZte97rXtRoys1lO7h+kDpk2pUFOSTkfHVWXl/dHPeacOvc6ukpp/JSh9/L/qjSYSiPZnDfe/va376oY+RAgQIDAggUEehYMLPv5BH71q1+tCwSU3E444YTytG55UsYGLi9m2K+0+h6ebyBj+U7qSp6TzRLkyRBms5xoZhtKS5g8P/TQQ+tW0HneV8rN2wx/ll5NuYGQoX7SorSLFPvcOM0JdXrjJDAzy/i92b4E3kpKq9PmhJnl9VGPmZ/jcY97XJWWR0nJKzctM4mnRIDAxgKpD9Izbp6UC/orXelK82Qxct0yIePIN71YC+QGbjPd+ta3bv458fnzn//8OjDeXOhLX/pSfVHf7E3ZvGHSpkV/Mz/PCayywN57713fFM2wtBnGKMNHJt3tbnerH5u//vRP/7Q68sgj65cSUM3NvlE9DdMrMeeWaTiUm64bJT3vNhJa/746db2HvwgMC6RxXxrVpWdPGoEkKN287kovwvTkKUN/pf478cQTR9ZnJe9c5zfnaE1d+fjHP768vWUec95a6vlZN/otb3lLlZ9pUs7ZPvvZz06zymDZNAAq88bl/0UZJjQT0L/nPe+prna1qw1G+0iDysyLmZ6hEgECBAhsfgGBns2/j1Z6C3MC2DyJHIcxvEwulhPoSUvGjDueob2S/uM//mNioKfZGqfZcn1cueNeLxfteT8tmkalBDUuetGLjnpr3Wtt5+dprpSJMg8++ODBS+lOP247Bgu1fJKWW0kJiGWSzgSypg30fO5zn6tue9vbDkpMkCctxabpeZRu/ek1VVocJaiV4Yma+Q4K8IQAgS0pkBsJmeh8UiqtS7NMgk+Tehp++9vfHly4TspzM7+X4VBKT51ZtjM3NMtQnc31U4dmOJZc8KcnaHNS5Nvd7nbNRT0nQGADgUz43QyWjlo8QwQ1zxdzfjUqyJNe1H/+539e9xBKHZc5ILtqvDNqu1btNXXqqu1xn3dWgQQBUq89+9nProPYww0q83oC0jlvy/yGo+qzlF3mpUpPmFyz5zo9DQgT6Bi3zkbbnOvSMi/hRstOev+4446b9Pamem/aXvnNjU9PnTKEb+bnac7bmfsT2Y9lyNHYpsFP7pNMe83fLNNzAgQIEOhHQKCnH2elLFEg3aBLoCdD0WRIt3HpM5/5zOCtWVvmJPhQxinP8EjjulSXIeUGBXb4JCfNuRlQAlc58U6LqXnn5cjk3S9/+csHW5qWWxe84AUHf7d5klZC6ZFTUgJxudmRFrDTpNzkSAArLY7KsCf5jBkqZdaeWNOUb1kC20EgrS0zifgsKcNcJhDTJuXYzCTc06bHPvaxGw6h0RyaKENOZOikcekLX/jC1BP8psVj6r7NkDJkZbP1a3o1NntGjtvGj33sY3Ur3Lz/85//fLBYevfkpnFa5ybv1Omp49NLNj1Bk9KD84ADDhis4wkBArsLfP/7369vXrY9//jpT39a3fOe9xxklGMvk5qPSsm7DAOX87rUvZl7rI+USdd/9KMfbVjUySefvOEyZQF1qjq1fBc8bm6BNMzL9dY1r3nNwYbmRv+4OXTSYC+BkkkNbpJROW/LchkGOL14fvGLX1QZkWOeNG2PmHnKmrTuRo2Oyrq5Z1BGEmnTsCnrZXSScl+j5LOIx9xLyDli6WGV/0H535M5KCUCBAgQ2NwCAj2be/+s/NalG/HwcApBefOb31xlqJmktAAaPuG88pWvXL+XX1e5ylUGrZ/Tvfk+97nP4L3mk7QuKvMR5PWcpM2SSo+XrJtu68tKMSnBqgSePvCBD6zr5TPLdsW9nJBm/Yc97GFTZZOTw0c96lGDdXIDMa3xf+u3fmvw2jRPLnGJS1Tvete7BnMgZdvuete71j19tHadRtKyqyqQm3hlmI1pDTJkYn7apNwkmCXQ0ybvRS+TGwfLrMvL58vQIBkfv5ne+973VkcddVTzpcHztIpNC83Us2VIjrx5+OGH1/9DM4HyYYcdVveCLP/7XvGKV1THH3/8uv3aDO4PMveEAIGBwJe//OXqJje5SX1+lHOtjealyPlmeuiURioZKni4Z/og87Und77znevzrRyfSamzM4dkzndGpdNOO61uTX/qqaeue7vMbZgXM1dP8++8lm0YHt74IQ95SJWfLpM6dVeDqS5d5UWgS4H03MkwbUmZf+d+97tf/XzUr9RpT3/600e9Vb82XBelkUp6PQ6n0gsyQ15O2wAweaUunTeVenmefNK4ZqNgV/LPsLvl/Cu9ah70oAdtWGyWn2a43g0znLBAGluVxkBZbFTjrv/93/+t0tOrzeedUJS3CBAgQKBDAYGeDjFl1b1Abk5lwu1myslkblSVlJtVw8uU9/JYgh15nmFpxqW0QCpBjASPRp3MjFu3vJ5WjwmGJCWPScOI5YK6TcvPjInb7E5dytro8UY3ulF185vffDBpZuawaQ7nttH6w++nRXuG9ikpXbjbjtWblkeZYL15UzgthXKy2jzRzxj0uRhIWdkXad2VE8j8ZMLK8pPWTDkRj3dpdV62Ky2OcgGR8iQCBAjMK/CNb3xj3iw6WT8X0gnM5H9H/r+kjiy9NscV8M1vfrMO9DTnPUovzPSsTDA8rWqveMUr1sOllOE9m/V0bvBm3H2JAIHRAunJUoI8WSLnfeklmRtk49Izn/nM+hgs72eInJzLTkrJMz0SSyOnzPeTHtE5fodThkPa6LwxQZ7hQE8a4gwHeobz7uJvdao6tYvvkTwWJ5BrrBLkSSmZSyxD3z73uc8dO7RarjPbphK0Hrd8zkemDfTkvCjXh/Om173udRv2JJ+3jL7Xz/X1LEPiZSSQ9JR/6EMfWgfymg1pc66YhkC5t5Ke5m9961v7/ljKI0CAAIExAgI9Y2C8vHkFMidL8+Z+5hpI1+cEDkalZnfzLJt5ekYNp5bu6SVlPoLSrby81ubxDW94w2CxtNacNI7tfe9732q//fYbLD/uyW//9m9veME+bt0EZsr8Fbk5kFY5uSExS8pNg2Yrp0k3MZr5p2dRxmkeTjnhzA2R9ChIAKeZ9/Cy0/79lKc8pco+TG8uiQCB8QIZRz1DJ7ZNBx100GDR17/+9dW+++47+HvSk8zDNUvK8IxlKMw26z/vec9bFzweXqfNEETD6xxzzDGDl9JaNHXyNKnL3oWpSzM0yq1udauqXHCnt1H+Lul73/veboHuZmvarN8MsGe99AxIj8tyE7nklV5YaVwxy//DkodHAttZIMdSjp1mr78EZHOemptgzSFzcyylIUoCPSXl7/QgLw1ZTjrppKr85KZlnqfe+vGPf7zb8ZmboQn+ZF6tZko586QMiZt5umZNG823qE5Vp8763bJePwI518kN/OZ8tRnG67vf/W71jne8Y10v4X62SCmzCqSXdhpm5jz8hje8YfWqV71qqqwScBs1L2TOzUsD2re97W1Vzr9H3V+ZqjALEyBAgEAnAuuvDDrJUiYEFiuQm4vD6Ra3uEV19NFH160bh9873/nOV2WunNI1OoGP+9///sOLrZs0N71hpk0Zc7w5zNykLu7T5j3r8mmJnUBXuXmXiRdnCfQkONbszZOWOxk2pE1Kr5xRaaOW6KPWmfTapS51qXUTjMd/1A2QSXl4j8CqCey1117VzW52s5k+doLrV7rSlWZat+1Ko1qdT1r3iCOOmPT2TO+V+jMrZziOAw88cKZ8ulgpN40TZG+2Wk0wJj0sS8pF/XCPxua8PM151dLyPxfqGYP9W9/6Vsli8Jib17kpkP8d6R0r4DOg8YTAQCCt3XMjLQ1MSs/wDOOb4zXnheW4SQv59KZrpsyH9bjHPa75Uuvn6cGcYdyG10/vv+Ebcz/84Q/XLXeXu9ylHhKuWViGw00arj+ay3TxXJ2qTu3ieySPxQrk2jq9gtOQJA0lk1J/JcCc3huTGrFkHtqNeikOb/2hhx46/NJUf6fu7WKo2TQo3U7pq1/9av1xRp3jzfM5838vw82VlP95i5x/uJTjkQABAgQ2FhDo2djIEptIIEN4laHRmpuVk7sMU5bgwajh0NIKvQR6Ms7wcKDn2GOPXTes2Czz83zoQx9a1ytllqHfmp+pq+c5Cbv73e9eZ5cbehlL/hrXuMZU2T/pSU9at/w0J3LTzMuRbve50ZCLg7SSzU9uSubxIhe5SN2S/qIXvWhVfjK3T37KuMBpbZaJIpNyAyRDnTzxiU9ct+3+IECAQFuBE088cXDjNuvM2jOpbXmzLJc6rxmIbw7TVvJrzuOT+jRB8MyTkZvBw70pb3CDG1QJDJXJfnNT9qY3vWl9I/sBD3hAlSGj2vbkKuV7JLDdBdJAKOcdaQFfep1neKLcDH3xi19cf/z02hlOJTA0/Pqov9OgJT9pQFNu2iVIm2F5L3/5yw9WSQ+fZvA3b2TIpWY65JBDdlum+f6inqtTq7rxlTp1Ud8w+XYpkMY8uW68/e1vX4+ekbwz1GSC1wn2DPcmLGWnsd3FLnax8merxwxLO3w+0mrFxkKZ20daL9AMrKdHT1cp55I5/0xDoKQEetJIoNmYqKuy5EOAAAEC0wkI9EznZeklC7z97W8fuwU5OUxvldzA2meffdYtl4lsy1BjCQal6/kBBxwwWKZchOeF3Mib5WbecGAnF9VpqTkupYXUpKHdynrlZlv5e9rHO97xjvXklOXkOZN3TxPoyfAdzaGdnv3sZ1eXvvSlW29Ggmzp5p+h2jKcR4IyzZ8Ed9KroI3FRoVmfPmMJVxugCRAlRa2i+51sNF2eZ/AZhLIDf4vfvGLc29SWpGPCqxvlHHmgGjbYjxlbDQ5bXMb0gNo0tARmfMs/w/apoxJX1IaAExqwVqW6/sxN4rH3SyO32tf+9p1c/mk/n7a055WDY+Rn6Fa8lpuEKenT3pHZf2Sd25ep07NT/6HNt37/szKI7AZBXJMfPrTn67ntSot4N/3vvfVQ9qkd3mCQM3W4jn/ybA4OfbSgCV1Y85fc4O0/JT3c1OtDAOXgFF6EJVjMzfbcm43LuV4Hh6uJ+eoabGfRjQlnXXWWfVN3XmHfkt++Wyj5g9Sp6pTy/fN49YQSP2UxpLp/Z1gdlIaiWRobucBm38fZnj7kq51rWuVp508Zh7HEujJ/6M0xs18PhIBAgQILFdAoGe5/kqfQiAXqqVLdk46S+AirRtz8ZybUrmwTrAn8+3kormk3Pi7zW1uM+i1k1ZIpQV01mnOrfP0pz99MMxGWb/NYy5o01soXZmTEhBJkOXqV7/6yNWnmXdiZAYtX8zNhbRwykl5Ak8JfEyTEpTJkB/xzXwZzW7abfLJTYTM/9BHOu95z1tlEs1mj6x89k9+8pN9FK8MAltCIHN1Neu8WTe69JKcdv0E0tsGenITYf/9929dROr6ScuPalE/KfPhm5KTlu3zvfx/G9cI4LTTTqvKxXz+T5b/ldm+DI2S1pYPf/jDB0ON5v/nPe95z/r/VYLuSWmlmwBbgj5HHnlk9cpXvnLQSyHDT7m5UzP5RWA3gQRSU8fmPCTH02c+85kq52FJCchkfsYEQfJTAje7ZbLBC5knLEO2ZS7Iq171qnUgadIqaaxTAk9ludQfOR/McJSlV/QJJ5wwqDvKcrM+ZqjHOAwndao6dfg74e/NL5BAc+qK9ERL3ZFje7OdB6RObdYvs6qmMdR2GQ0i907S+KCkaRp6lnUmPeac+973vvdgtJWM+JFzx3E9vSbl5T0CBAgQ6E5AoKc7SzktWOBFL3rRYFLutDLOT0kZAz1dk3PymQBK5uTJzf2c9JWUIWc++MEP1n+mB08CFrnhVYJHeSMtJHMTa9aUruoZwi3d2pOe8pSn1H/Pml9X6+WmarZl1pTeNmmhsxVa6WReogc/+MHVq1/96nqIvu1ysj7rvrMegWGBBESldgLNYMo0w1C2y332pXIRfZWrXGVsBul1k56NWS7/BzPE5XWve906mJOVcoMmQ3kmj/QiSEvMTPj+n//5n1XmZMtP5vrJjerDDz+8Sm/J3CxIa82nPvWpY8v1BgEC/3d8pRV16tpLXvKSA5Icj2mclCBNjrH0dM7xlJuoSZmDsgz7liBraSj0s5/9rHrBC15QL5MgT85fc76ZQFHmTCyBpHqBEb/Sq29USg/3zNWTeTfSWzE3BRed1Knq1EV/x+S/GIE0MMk8twkIl7ppXEmpv1JXTZOajVKmWa+5bLO+bb4+zfOcL22X9J3vfGfdR5llxJJ1GYz449GPfvQg0JMGBe9///sH55ojFvcSAQIECPQgINDTA7Ii5hfIZJDlhn1OUtJrp5nSGjE9Vq5whSvULyfok54dzd4nt771rQdDmOWmVgI86XKceV1KSjBk3lYo6cJcAj1p8Z7eRQk+DKdjjjmmDiyV1zPBd7nA//73v19va3mvPOamwLiUVtc//elPx7098fXmRN1xzLbNkq597Wuv600znEdampfPOPxeV39neLjs09w86eKEv6vtkg+BzSKQ4TZyk7BNSsA0dUtJuRGZYMAzn/nM+qUEx9/2treVt1s9ZqLwtunkk0+uAxBtlz/ppJMGrdNHrZNgxjQpQ72VlP9Dp556avmz9WNuiKR+7zrlRvEPfvCD+uZshlz69a9/XeUxN2vTajP/KzP05imnnFJv97/+67/WvQtS3+eGSqxyUb7RzZVrXvOa1X3uc5+6JW9a80oECGwssN9++41dKPVoGWI2venKTdOcf+VGalKGnC2vZ06e5z3vefXrGSY457Y5Hyw9yOs3xvzKTdkEcoZTAsA5F04DqMxbmXo+gd0/+7M/G1508HfObbNOUur+9NoZl4aHMy7LqVOrSp1avg0et5pARtTIz0apOUTlRst2+X6pV+fJ87jjjptn9U21bhlqLxuV+Rfnvccx6sPl/1TODTN0clIa32ZEE4kAAQIElicg0LM8eyW3FMjNqwx1UVJajmQSyOGUiWgT3EnPnZyEDl+sprXiYYcdVmXi2qQEZNJKsqSskwvueVMu7jMfUHogJWXIm1GBnlxkl2Fyslwmukwrz6QEqkYNd5a5btIt/RnPeMZuBmnt2cUJ7riWn/WGbfArE2k2h00bXjyfr+2QTcPrtv07Q/R94AMfWNebq+26liOwCgJprZig7EYp9Wlu/pWUIRlyQzDBg/SKzA2/BG7z93DwvayTx2984xvVvvvuO9MxmaGO8tM2pddKVykBk+YktpPmXJtUZubCWESg57Of/Ww9ZMaksrt4LzelE+iRCBBoL5DAaoKpN7/5zXe7uZbATUnN88DyWpeP6d1XUs4zM2dQUibOLr3h01Mvw+y+9KUvrYfpLcsPP+b8NvN7JeWmYYb0nSapU/9PS506zbfGsptNICNm5Jo6dcCo6/FlbW/OSTfLnKyHHHJIq6E5jz766AFXho4v9fPgxRFPvvzlL494dfRLzXPYUfciRq81/atpfFACPen9nUZIOe+XCBAgQGA5AgI9y3FX6hQCCciUFikJjtztbncbDOE2nE3GK8+4wQkMlaEwmstk6LEXvvCFdQvmnBCWYEyWycXrRsNfNPOa9Dzll7zT2v01r3nNuqDOqHVvdatbDQI9H/nIR3YL9KQl5d3vfvd61bLtm+kEe9RnGn7t9NNPH37J3wQIbDKBHKcJ2pYJVrN5qdNKkDw9KBNsTkA76WEPe1jdC3BUS8F3vetd9Twv17nOdephLJsTf9crb+JfuVDtIk3qiTlP/glqz5P+4A/+oJ7LLvuktNLNY4ZbucQlLlFlrpE8jtqv85RrXQKrIJDhDjM0Wo6po446al1wvTlfTnohLyq9+93vHgypkyFtmynnuzk/PeCAA+qXE/TJjbk0plpUUqeqUxf13ZJvPwJp2JPeGrkOTa++3Ny/zGUus1vh6fl9sYtdbLfXJ72QYS036mE8af3N9F6Gxp025bPPOvfluLIynHxJ6Um4qHSLW9yibsyV70VS5vSdppHWorZLvgQIEFhVAYGeVd3zW+RzZwix0nowm5whhzZq/fjWt7517KfLDcq0Sh/u7ZMAUpshMMZmPPRG5j3IsBWZLygpw7flJGhSuv71rz94O63oc5M1NwiSMuxGxlEvKUNt5HM059p45CMfWU070XjJL3mVk7PMb9TclrJMm8c73OEObRYbLNPVSWeGY2reOBkU4AkBAlMJZDzv9GwswfWs/MAHPrDumdgMLKfnZII9qTfSkzAtlIdvJKY3Y4JASZmvIr0UM5nvRilBoYzv3jaVoTKz/C1vect67rU265ZhkcYtmxuwGbpulpT/Q2XokkUFehKg+e53v1udeeaZ9TBO2T+ZsyM/KTMtbnMzN/8n8pjXmvsw+yTLSAQIdCuQYRUT5EnKzbu99957UEBulDbTqEZJzfdnff6Tn/ykul9jiM40dEqd3EyZq+sVr3jFoJ7OvJWLTOrURerKm8DiBTK8ZLlezLCwaQwyKuXcoo/zi9StuYbNtiwiXeta11pEtr3k+dWvfnXdcOkZ0rerlB6hOd/ef//96yyzr9PYtoxM8oY3vEGgpyts+RAgQGAGAYGeGdCs0p9Ac46dq171qtWhhx46d+H3vve9q3SPbgYGMv9P160qM3F3CfTkcaNAT4JQaaGdIE7Sq171qnpeotxMzUlsSZl3Id3mm0GevJebsbOmlFVO3NNK/2Y3u9msWbVe7+EPf3g9bEjrFSYseORaYKzLQN2EorxFYFsKZCihtOhuBtbzQZ/znOdUmbtsOCU4niGBylCM6e2TYHSGhcuQmJkjKxeCJSVonSHM2qQEhEYNXTlu3WbwIjcyy4XnuOXbvp4bGA960IPaLr5uuczns+hAT+Y8G9cL9eyzz65+9atf1T/rNqzxR1rctr0RkxvAF7rQhRpre0qAwDiB9KQpKQ1a0vK9pB//+Mflad0COud+i0ipu8p5XYaPu/KVrzyymATo0/o625FGUKk7EjwelTIHWEllPrDyd/NxOKhc3lOnFomqbpCgTt3l4dnWECg38rO1CR4PX4v2/SnS47hNz5EEgjL8buayzXniuHOnrrb//e9/f3X+859/w+zSsKr0Ysp18cEHH7zhOl/4whfqc+yNFmzOzZZ7B+mx2UVKr//s+6Q0zPr85z9fP7/HPe4xCPTkvkeGmOsyuFQX4hcBAgQItBIQ6GnFZKFlCSS4U8Z8TTCiiyFkjj/++HVBnny2H/7wh51/xMwtVFIzqFReG/WYE6cS6EmAJzcLvv71rw8WzYlahqYrPX0Gb3hCgACBGQQSLEhvnARsyk3Bkk0uOkcFecr7CbxngvCsl5/UWWn9+JCHPGRdXhkiLOOOZ1iOVUmZi6KkRd0IedzjHle3xi/lTPs4TUBsXMBv2jItT2AVBDLnTUllyN3yd3r7lJThEReR3vSmN62b6yG94celBGUy/2N6AiZonoZEBx100LjFB6/nMzY/5+CNtSfPfOYz6wZVzdfmfa5OnVfQ+gTmE8i8gM1r0szZOC7lRv/wOeW4ZWd5PcHo9JpM8OJ3f/d3B1lkbskTTzyx/js9w3PdnJR5EjOnZFJGv0hP8EkNXdIQJiNlpAdm5n2d9v7DTW960zp4Xhc44VcCIWW4tswv1Kbubd5fGJd1AvbNEU7SyLWr1Nyvxx577CDbNHBtjmaSoUEFegY8nhAgQKBXAYGeXrkVNq1AemkcfvjhVYYJ6mISwbSayVw4w+m1r31tdbWrXa2THkPJ+4QTTqhPIks5bW9wZti0TG5ZWoI3T6hj8PznP3/k3EOlHI8ECBBoI5CL2PSEy7A9pTXh8HqZq2VSypBDyeNOd7pTvdjLX/7y3RZP0Cf11qQek7lozZBxXaTUmcNDI7XJNzc4c5Hd7B3UZr1xy+zcuXPw1qJa7C9qqJLBhntCgMDUAt/73vfWDX2Z+Sya6dvf/vbgzzI/zuCFjp4k0FJShs/caJjcffbZpyzeyWOGjes6qVO7FpUfgekEcr5YUnpwX/KSlyx/7vZ4wxvecLfXunwhvVpudKMb1VnmGjvntEkZMizD0iYluFMCPS9+8YurMrx4Gh7d6173qgMhowI4p556an0+WAIambNyUrA8ZeU8Lz2L0mMoKQH0RaW4555AUrO3aLO8r33ta4PAVl4v5+nNZWZ9/vOf/3yw6vDQfekVmlFSkhJ0y4gkkwJqg4w8IUCAAIFOBQR6OuWUWdcC6dGTi+S2Q/5MKj83/25/+9uvO/FpLp8bkrnobtOaprlenueEM3M5pOV2egcNT8KYG4htU06Krne9661b/OMf//hM27UuE38QILDyAp/5zGfqoRVyoTuccrGcodeaAebhZYb/PuSQQ6pHPOIRuw3DmKD1C17wgvpieXid4b8zx1bq+i5StmfWlHp7oyE22+adofBKmhTkKsvM8pibCtMOWVlujKS8T3ziE60vwJstZmfZVusQWBWBf/iHfxh81ARY0uK8mTKcTUm5ETlvSqB+uJd3znUzxFJez3BF06TUV+Pq4+b/hgzfud9++43MetIN4JErtHhRndoCySIEFiSQnojN+RBzzbzM1Kxn2zQETZ34xje+sbrvfe9bb3bmGko9lQDQcEodmB7TGeZ68bJdAAApC0lEQVQ9Kfcg0ghzVEPRsm4CO81h1svri3hM/ZwGqpNSc/jQLN9lo4KTTjppUPRwI4EMu1wCPQmUpYfoJLdBRp4QIECAQKcCAj2dcspsEQLNk5VZ808X77TeKa18ks/tbne7ev6J61//+oPu5blJ+MUvfrG6whWuMFVRaRGUlu2jUoI2zZtro5ZpvpYT1gS3yti6uZi++MUv3lzEcwIECMwkkEDPcJAndUxuBmauhgzFVm7mte3dkh47Rx999LpW7LnQmybAPdOH6XilzGnTVco8RSUtqkdP/k9N+7+qbFMe0+JWS8umiOcE5hPIcDlpUV5S5l9opryfuRtKuspVrlKezvyYPHITLz137na3u9X55GZmAj0vfelLq4tc5CJT5Z05F4455piR62QIxzKPW86Xx533jlx5zhfVqXMCWp3AHALN3jzpJbNRj50EgnJuOU3667/+61aL55r+LW95y2DZ9C5qk+5zn/tUCVIcdthh9eKpIzN3WXqhJGVe4Ote97p1g5/MQZlGlmWEjZSR3piLCGLXhXf4K/9nMmxaSV0O25Y8m/PMDQd60rDhxje+cfXpT3+6Lr45VGn9gl8ECBAg0IuAQE8vzApZpkBOeHLyVgIn2Za0snz7299eDyf0rne9q7rlLW9Zb2Jan9zmNrepPve5z1UXu9jFWm925qBIa/jmXDw5wc3Nztw8zdjnbVPyyMluWltne/Jzs5vdrA5AXeYyl2mbjeUIECCwm0AucDOcQuqZDPnw2Mc+tsrF71577bXbsqk7J6UMpbNjx456Utu0jrz61a8+CJonuP23f/u31f3ud79JWdTvZVLcjGc+ayrzuGX93KScNbCS3kxdpebF7UZD4E1T5pe+9KVqnl5LzbLGDfnRXGbU8/TUKjeUR73vNQKrKpBAeuamKGl42LYEeZpDZW50s7TkM+kx9XDmqkjPyHJcpqdQjtO0rt4uSZ26Xfakz7HVBFK3pD4pKXPXbNQQKL1hprmOTt45Z2zWj6W84cc02mwuN02PkZzzfuUrXxkEQhLQSc/oNPRJ4Cc/SZnHJ3PcpMFSuRbPuXKuzTf67MPb2/ffGQq5zEeUsof/D827PRmetKRR55H5fuS+SBofjOv1Wdb3SIAAAQKLERDoWYyrXDeJQIZ6SEudZhfvnJR88IMfHMwZkaF6MrdEJh5PyslRJhTMydzlL3/5Vp8kJ33pEp4TzwR80uInj21bS2c880yGm67YGWc4Y/ymJ9PNb37zuvzkm+1Mq/m999671TZZiAABAsMCCYIkuJ065da3vvXU44iffPLJ1VFHHVW3pszFdsbqTv23//771/mWoHnKzcVzLjgztvmk8cpzMyDDO8yamhfdaeWZbVlmypxDzYvsLuvs3IxoNiiY53POmk/zRvY85VuXwHYTeNWrXjX4SDl/aw55eMYZZ9TDAZUF0tt7eMi18t40j7kJmTQ810RptT5NXpt1WXXqZt0ztmsVBF74whcOPmbqrIyQscyUnuclpafNtMPjvuY1r6kyh02COH/zN39Tn8Nmbt1myhyUF73oRas3v/nNg7l90qgo1/ptGjA18+r7eXp6J2iWYZXzvM05cf4/tU3N4UdHBXIyF1KZD6ltnpYjQIAAgW4FBHq69ZTbJhI47rjjqoMPPnhd68r0svnYxz62W7AkrU6+9a1vVeUiPTfA0usnAaGMy9smTdsiPTfs0rozJ2PN3kYp69hjj63n5Hn9619f/fmf/3ldfG6upYXMO9/5zqrNeMRttnmZy2TOpGaLrHm2pTkx5Dz5WJfAKghc+9rXnupjnnbaafW8YxkKIj13mun4448fTAabYPS//uu/1gGkcmynd2IuqPPYxXwUzbI36/PmRXC2cXiy2nm2O//DMizGrKkMp5H1c6O5bWOEZnnNm9fN1z0nsMoCJ5544rr68YEPfOA6jpzrNYOkz372s9e9P8sfOY8q6fznP395uu0e1anbbpf6QFtEIPVacx6bjFQxa6/pLj5yzmFybV5SetlMm9KDPb160pu8pOZwlWkQWhonZW6fe9zjHoMeQAmeZA7KaXsrlXL6eEzjpwSj0pir2RNyuOzmaCMf+MAH6t5MzdeGl8/f3/3ud+uGqeW9LoYfLXl5JECAAIHuBAR6urOU0yYSSAAlQZ5mSiukD3/4w2NbtmQs8//93/8dXKinlWSG1cgQb2U4jGZ+0z5Pi8TS8jLrTppbISfWuSl6//vfvz6pKuMWJwCVm3O5QZCT7eEWnNNu0zKXP+KII6r8SAQIbB6BDANUUno1ZsiODF/RrLvK+3lMz5Xm0A3XuMY16mEmc4GZ4HnSRz/60frnT/7kT+rJbTMm+nZNP/jBD6qHPvShg493uctdrh7ebvDCnE8yqe6nPvWpmXNp9n5KPrMEemYu3IoEtrFAWnqXlIBs5oEsKXVpM/CTG4U3uclNyttTPaZXZRoKnfe8562++c1vDtadd4jITLSeoSEnpTJfRZb5/Oc/Xz3+8Y+ftHg9LHKGHp4nqVPn0bMugfkEmkO2pV57wAMeMF+GY9bOcV4aCI1ZpDrrrLPW1TlpkJlzzXEpDT7HpWaQJ71ZSkPPLJ8hgJspPZpyXyHnwfl53OMeV73pTW9qLrIpn+e+x6Reo835dXIun+Hhb3vb246dWylz87z3ve9d91lzTioRIECAwOYT2C3Q07zJ09XmLiLPttu2SmWffvrpbVm27XKZoDGTxT7jGc9Y9xkTHElL9OZJzboF1v7IDa+0WM8yhx9++ODtu9/97lVarWcc33lSeg1NSpncMkMdpeVQczvLsEfPfe5zB6tnMtz0TMoN1MyRIa2WQOZOWVbdtqxys4f7LnvV6tQvfOEL9bAU5WjKTb3mjb3yegI7qasSAL/sZS9bXh485mIxc0ZkSI1MZltSbiTmJ3Xc85///C0xqW3Z9uZjLvjTwjx1b1qGJoificLjlzq5mTbTHBnNcdWb2+h5ValT+/kWbNc6NTcKm+eNhx566KC1eOrQMgxvUf6rv/qr8rTVY3NootwMTd2altTNCbfn7WmXYFSGD26b0jupeRN41HrZ1jaBHnXqKL2t/doq1anbtV5L48JmvfbUpz515HyO035TEyz4xje+UV9359o7wZM0qmymUQGKD33oQ+uC0bkubjZeyfrNoXLTIDINWi50oQs1s173POdv6c3THG43c0w2U3plp67LnLtJuV7fDmm4d3/296tf/erWHy2NUZsBs9YrbuEFV6lea+6mvq+/ld3/PQ/m2898t0BPcyd7TmCrCWROnhe96EXrNjvdrHOCltaPG6V01c5EjAm0NFsqZjzgzOEzasLyjfIs71/84hcvTwePuWGam57lon3wRuNJtinBnrQwuuc97zloWX/qqadu+dbYmceoi5STU4kAgfkEcpNvXIvKtOS8733vW9dBuTgcvrgeLjnjm6cHZQLsqUubx2huTuaGQeYy24opQazSy3LS9udmwKMe9ahJiyzsvQwHmv9buUGcgFR6f2bIk5KyP/XmKRoeCcwnkIB2s+7MsDklDQ/Rljkfpm0Fnd46abCUuifpfe97X/1Tyshj5pbcqkmdulX3nO3ezgLN6+mcMzzoQQ/q5OMmsPuGN7xhbF7pCX2Ri1xkt/dTB6ZnZM5VM6z6QQcdtNsy17/+9eveN+WN4cY35fVJj3e84x13ezvDqKeBT+b9He7xs9vCW+SFK17xinWjq+b9jrabnvk425wHt83PcgQIECDQrcBugZ4ueweU6G+Xebb9+KtY9qq1qhj1XciJYSYaLxOC54ZieuRMm9ItOy147n3ve9erpvfMPEGeZJJWjc961rPqsX1vc5vb1Ns4qjX8uG3NMCAZU/hOd7pT9fWvf73K/D1beei2BM5e9rKXjfu4U71+5JFH1j0MplppCy+cm+x916vq1C38hWm56QkkNy++MydY6p3MvZMhMqYNDCRInfr3kEMOqYdpTOvKtNzMRWUuMLdqynxsky5w0xI1NwXSC3Te/xvzGE0ahin/R6RdAsuoU0vpfdflKXdZ9fl2PU+9+tWvXj35yU+uXv7yl9dBnGb9lom/MxRv6r7coJw0kXmzV06ZI6J8T57ylKdU6RnebHle3ss576R8y3KTHp/whCfMPJzcuHybn2fcMnldnTpJZ2u+t4w6Vb3W7XclQ0wmuJFeiTlvm9QzZpqS08Oxea45vG5zGLXme7nGT32aui6NiUal1JEZ0jIB9WlTznPTMLTZK6jkkfp4mh6PZb3N/pj7HQlsZX7NE044oe7dPG6bcw2Q70CGX87/vOH/UePW206vr1K9lv22rDp12WWX7+wqnZ8v23yZ37Xtur93C/SUD+qRwGYWyCSIuShNGj7xzE3JBHiudKUrTd1qsvmZcyKZXjiZiHy49U5OdspQHG1v5KWVUSbOneefRgJDGRf96KOPrk+ymts7z/M73OEO1U9/+tMqkzA2b1DMk+eodffdd9+BW1pjdZWyn8r+uNWtbtVVtvIhsFICN77xjavHPOYxVQI8CUyP6oU4C0hu7j7kIQ+pA+cZ13yWyXMnlZtWnrmJmtTHjeTU5e94xzvq+jx1ek5O03MmNzX322+/6vKXv/xUF8BpKVvqr1E3GCZ99nHvXeta1xo5NnusUt+ParE6Li+vEyAwWSB1ZXpeJxiTc6lmSp1w1FFHVRk6MQHgSSkNePIzKuWmaybCzjngSSedVC+Sm537779/delLX3rUKru9lhbw5Zw5dUEzpYd5c7615nuLfq5OXbSw/AlML5Dr6fykcWGu3yal3ABPgKb0bGwONzm8Xs53hhvL5Poz9Vjmxk1Dy0lp0vXjBS5wgXr+nARlMt9t5vXZKOWaPnV4H+ePw9vSrLtjsIyUewvTNDxdxjYqkwABAgSmE9hjbfHzrP1kTKtM9LHX2tiTx689dpKWGZlbxbIzLEuZ3DXdnidNQtjJDpYJAQK9CSz7+FanqlN7+7IriEAPAsuuU/MRMzdAenv0nZZVn28G876tlUdgVQSWfXyr11blm+ZzEuhPYFXrtQgvq05ddtkpf9XOz5dtvszv2nbZ32sNLvZb+yynrP3sXPv51XKaDkRTIkCAAAECBAgQIECAAAECBAgQIECAAAECBAgQmEtAoGcuPisTIECAAAECBAgQIECAAAECBAgQIECAAAECBJYnINCzPHslEyBAgAABAgQIECBAgAABAgQIECBAgAABAgTmEhDomYvPygQIECBAgAABAgQIECBAgAABAgQIECBAgACB5QkI9CzPXskECBAgQIAAAQIECBAgQIAAAQIECBAgQIAAgbkEBHrm4rMyAQIECBAgQIAAAQIECBAgQIAAAQIECBAgQGB5AgI9y7NXMgECBAgQIECAAAECBAgQIECAAAECBAgQIEBgLgGBnrn4rEyAAAECBAgQIECAAAECBAgQIECAAAECBAgQWJ6AQM/y7JVMgAABAgQIECBAgAABAgQIECBAgAABAgQIEJhLQKBnLj4rEyBAgAABAgQIECBAgAABAgQIECBAgAABAgSWJyDQszx7JRMgQIAAAQIECBAgQIAAAQIECBAgQIAAAQIE5hIQ6JmLz8oECBAgQIAAAQIECBAgQIAAAQIECBAgQIAAgeUJCPQsz17JBAgQIECAAAECBAgQIECAAAECBAgQIECAAIG5BAR65uKzMgECBAgQIECAAAECBAgQIECAAAECBAgQIEBgeQICPcuzVzIBAgQIECBAgAABAgQIECBAgAABAgQIECBAYC4BgZ65+KxMgAABAgQIECBAgAABAgQIECBAgAABAgQIEFiegEDP8uyVTIAAAQIECBAgQIAAAQIECBAgQIAAAQIECBCYS0CgZy4+KxMgQIAAAQIECBAgQIAAAQIECBAgQIAAAQIElicg0LM8eyUTIECAAAECBAgQIECAAAECBAgQIECAAAECBOYSEOiZi8/KBAgQIECAAAECBAgQIECAAAECBAgQIECAAIHlCQj0LM9eyQQIECBAgAABAgQIECBAgAABAgQIECBAgACBuQQEeubiszIBAgQIECBAgAABAgQIECBAgAABAgQIECBAYHkCAj3Ls1cyAQIECBAgQIAAAQIECBAgQIAAAQIECBAgQGAuAYGeufisTIAAAQIECBAgQIAAAQIECBAgQIAAAQIECBBYnoBAz/LslUyAAAECBAgQIECAAAECBAgQIECAAAECBAgQmEtAoGcuPisTIECAAAECBAgQIECAAAECBAgQIECAAAECBJYnsOdw0Tt37hx+ae6/F5Fn241apbJPP/30AcuPfvSj6oIXvODgb08IENg+AmeffXa1rLptWeVm7/Vdtjp1+xwzPgmBSQLq1Ek63b2nTu3OUk4ENrPAKtWp6rXN/E20bQS6E1ileq2p1vf1t7L7v+fBfPuZ7xboae5kz7euwC9/+cutu/G2nAABAptMQJ26yXaIzSFAYEsLqFO39O6z8QQIjBBQr41A8RIBAgQIECDQq8BugZ4dO3Z0tgEl+ttlnm03bhXLPt/5zteWx3IECGxhgT322KPqu15Vp27hL4xNJ0BgosAy6tSyQX3X5Sl3WfW589Sy1z0S2N4Cy6hT1Wvb+zvl0xFYtsAq1WuxXladuuyyy/dslc7Pl22+zO/adt3fuwV6ygf1uPUErnnNa1bHHXdc9Z3vfKe6whWu0PsHOO200+oyz3/+8yu7RwH7u0fstaKW+T3PJ13W/u5XeXOUljr1mGOOqTdmGfVaCl7W/l7m93xVy7a/V+vcoa5YVuzXsuvUZdYtju/VO779/16NCs71d1Ut4xxZfb5adeqq7u/VqEV9SgIEuhYQ6OladIn5/cZv/EZ1uctdro6+57HvtMxI7KqWnX2cz25/9/dtX+Z3bZn7uz/hzVNS6tQDDjig3qBltOpZ5v5e5vd8Vcu2v7vrUd62Flnmd63tNm6n5ZZdpy57f6d852v9faPtb3VqH982199V76MMZL86vlfr+F7V/d1HHaYMAgS2n8C5tt9H8okIECBAgAABAgQIECBAgAABAgQIECBAgAABAqshINCzGvvZpyRAgAABAgQIECBAgAABAgQIECBAgAABAgS2oYBAzzbcqT4SAQIECBAgQIAAAQIECBAgQIAAAQIECBAgsBoCAj2rsZ99SgIECBAgQIAAAQIECBAgQIAAAQIECBAgQGAbCgj0bMOd6iMRIECAAAECBAgQIECAAAECBAgQIECAAAECqyEg0LMa+9mnJECAAAECBAgQIECAAAECBAgQIECAAAECBLahgEDPNtypPhIBAgQIECBAgAABAgQIECBAgAABAgQIECCwGgICPauxn31KAgQIECBAgAABAgQIECBAgAABAgQIECBAYBsKCPRsw53qIxEgQIAAAQIECBAgQIAAAQIECBAgQIAAAQKrISDQsxr72ackQIAAAQIECBAgQIAAAQIECBAgQIAAAQIEtqGAQM823Kk+EgECBAgQIECAAAECBAgQIECAAAECBAgQILAaAgI9q7GffUoCBAgQIECAAAECBAgQIECAAAECBAgQIEBgGwoI9GzDneojESBAgAABAgQIECBAgAABAgQIECBAgAABAqshINCzGvvZpyRAgAABAgQIECBAgAABAgQIECBAgAABAgS2oYBAzzbcqT4SAQIECBAgQIAAAQIECBAgQIAAAQIECBAgsBoCAj2rsZ99SgIECBAgQIAAAQIECBAgQIAAAQIECBAgQGAbCgj0bMOd6iMRIECAAAECBAgQIECAAAECBAgQIECAAAECqyEg0LMa+9mnJECAAAECBAgQIECAAAECBAgQIECAAAECBLahgEDPNtypPhIBAgQIECBAgAABAgQIECBAgAABAgQIECCwGgICPauxn31KAgQIECBAgAABAgQIECBAgAABAgQIECBAYBsKCPRsw53qIxEgQIAAAQIECBAgQIAAAQIECBAgQIAAAQKrISDQsxr72ackQIAAAQIECBAgQIAAAQIECBAgQIAAAQIEtqGAQM823Kk+EgECBAgQIECAAAECBAgQIECAAAECBAgQILAaAgI9q7GffUoCBAgQIECAAAECBAgQIECAAAECBAgQIEBgGwoI9GzDneojESBAgAABAgQIECBAgAABAgQIECBAgAABAqshINCzGvvZpyRAgAABAgQIECBAgAABAgQIECBAgAABAgS2oYBAzzbcqT4SAQIECBAgQIAAAQIECBAgQIAAAQIECBAgsBoCe6x9zPOs/Zx37WfH2s9eX/va145fe5QIECBAgAABAgQIECBAgAABAgQIECBAgAABAgQ2mcDVrna1/dY26ZS1n51rP7/aLdBz9tlndxbo2bkzZaxFkHYkhtRvWtWyo3zMMcdUBx54YL/ga6WtqvkyP7f9vVp1i/1tf/dVsS+zXlvVsh3fjm/H92IFllm3OL4d34v9du/KfZnf81Ut2/Ht+N51BC722aoeY8v83I5vx/dij+pduS/ze76qZW+X43uPPfZYF+gxdNuu48ozAgQIECBAgAABAgQIECBAgAABAgQIECBAgMCWEhDo2VK7y8YSIECAAAECBAgQIECAAAECBAgQIECAAAECBHYJCPTssvCMAAECBAgQIECAAAECBAgQIECAAAECBAgQILClBAR6ttTusrEECBAgQIAAAQIECBAgQIAAAQIECBAgQIAAgV0CAj27LDwjQIAAAQIECBAgQIAAAQIECBAgQIAAAQIECGwpAYGeLbW7bCwBAgQIECBAgAABAgQIECBAgAABAgQIECBAYJeAQM8uC88IECBAgAABAgQIECBAgAABAgQIECBAgAABAltKQKBnS+0uG0uAAAECBAgQIECAAAECBAgQIECAAAECBAgQ2CUg0LPLwjMCBAgQIECAAAECBAgQIECAAAECBAgQIECAwJYSEOjZUrvLxhIgQIAAAQIECBAgQIAAAQIECBAgQIAAAQIEdgkI9Oyy8IwAAQIECBAgQIAAAQIECBAgQIAAAQIECBAgsKUEBHq21O6ysQQIECBAgAABAgQIECBAgAABAgQIECBAgACBXQICPbssPCNAgAABAgQIECBAgAABAgQIECBAgAABAgQIbCkBgZ4ttbtsLAECBAgQIECAAAECBAgQIECAAAECBAgQIEBgl4BAzy4LzwgQIECAAAECBAgQIECAAAECBAgQIECAAAECW0pAoGdL7S4bS4AAAQIECBAgQIAAAQIECBAgQIAAAQIECBDYJSDQs8vCMwIECBAgQIAAAQIECBAgQIAAAQIECBAgQIDAlhIQ6NlSu8vGEiBAgAABAgQIECBAgAABAgQIECBAgAABAgR2CQj07LLwjAABAgQIECBAgAABAgQIECBAgAABAgQIECCwpQQEerbU7rKxBAgQIECAAAECBAgQIECAAAECBAgQIECAAIFdAgI9uyw8I0CAAAECBAgQIECAAAECBAgQIECAAAECBAhsKQGBni21u2wsAQIECBAgQIAAAQIECBAgQIAAAQIECBAgQGCXgEDPLgvPCBAgQIAAAQIECBAgQIAAAQIECBAgQIAAAQJbSkCgZ0vtLhtLgAABAgQIECBAgAABAgQIECBAgAABAgQIENglINCzy8IzAgQIECBAgAABAgQIECBAgAABAgQIECBAgMCWEhDo2VK7y8YSIECAAAECBAgQIECAAAECBAgQIECAAAECBHYJCPTssvCMAAECBAgQIECAAAECBAgQIECAAAECBAgQILClBAR6ttTusrEECBAgQIAAAQIECBAgQIAAAQIECBAgQIAAgV0Ce+56+n/Pdu7cOfzS3H8vIs+2G6XstlLdLce8O8u2OTFvK9Xdcsy7s2ybE/O2Ut0tx7w7y7Y5MW8r1d1yzLuzbJsT87ZS3S3HvDvLtjkxbyvV3XLMu7NsmxPztlLdLce8O8u2OTFvK9Xdcsy7s2ybE/O2Ut0ttwhzPXq62z9yIkCAAAECBAgQIECAAAECBAgQIECAAAECBAj0KrBbj54dO3Z0tgElMtVlnm03blXLLj7Mi8TiH5f5XSufzv4uEot/tL+7+x/Rdm8t03yZZRcfx3eRWPyj/e34Xvy3bH0Jju/1Hov8y/Ht+F7k92tU3o7vUSqLec3x7fhezDdrfK6O7/E2Xb/j+HZ8d/2d2ig/x/dGQt297/ju/vjWo6e776ecCBAgQIAAAQIECBAgQIAAAQIECBAgQIAAAQK9Cgj09MqtMAIECBAgQIAAAQIECBAgQIAAAQIECBAgQIBAdwICPd1ZyokAAQIECBAgQIAAAQIECBAgQIAAAQIECBAg0KuAQE+v3AojQIAAAQIECBAgQIAAAQIECBAgQIAAAQIECHQnINDTnaWcCBAgQIAAAQIECBAgQIAAAQIECBAgQIAAAQK9Cgj09MqtMAIECBAgQIAAAQIECBAgQIAAAQIECBAgQIBAdwICPd1ZyokAAQIECBAgQIAAAQIECBAgQIAAAQIECBAg0KuAQE+v3AojQIAAAQIECBAgQIAAAQIECBAgQIAAAQIECHQnINDTnaWcCBAgQIAAAQIECBAgQIAAAQIECBAgQIAAAQK9Cgj09MqtMAIECBAgQIAAAQIECBAgQIAAAQIECBAgQIBAdwICPd1ZyokAAQIECBAgQIAAAQIECBAgQIAAAQIECBAg0KuAQE+v3AojQIAAAQIECBAgQIAAAQIECBAgQIAAAQIECHQnINDTnaWcCBAgQIAAAQIECBAgQIAAAQIECBAgQIAAAQK9Cgj09MqtMAIECBAgQIAAAQIECBAgQIAAAQIECBAgQIBAdwICPd1ZyokAAQIECBAgQIAAAQIECBAgQIAAAQIECBAg0KuAQE+v3AojQIAAAQIECBAgQIAAAQIECBAgQIAAAQIECHQnINDTnaWcCBAgQIAAAQIECBAgQIAAAQIECBAgQIAAAQK9Cgj09MqtMAIECBAgQIAAAQIECBAgQIAAAQIECBAgQIBAdwICPd1ZyokAAQIECBAgQIAAAQIECBAgQIAAAQIECBAg0KuAQE+v3AojQIAAAQIECBAgQIAAAQIECBAgQIAAAQIECHQnINDTnaWcCBAgQIAAAQIECBAgQIAAAQIECBAgQIAAAQK9Cgj09MqtMAIECBAgQIAAAQIECBAgQIAAAQIECBAgQIBAdwICPd1ZyokAAQIECBAgQIAAAQIECBAgQIAAAQIECBAg0KuAQE+v3AojQIAAAQIECBAgQIAAAQIECBAgQIAAAQIECHQnINDTnaWcCBAgQIAAAQIECBAgQIAAAQIECBAgQIAAAQK9Cgj09MqtMAIECBAgQIAAAQIECBAgQIAAAQIECBAgQIBAdwICPd1ZyokAAQIECBAgQIAAAQIECBAgQIAAAQIECBAg0KuAQE+v3AojQIAAAQIECBAgQIAAAQIECBAgQIAAAQIECHQnsOdwVjt37hx+ae6/F5Fn241Sdlup7pZj3p1l25yYt5Xqbjnm3Vm2zYl5W6nulmPenWXbnJi3lepuOebdWbbNiXlbqe6WY96dZducmLeV6m455t1Zts2JeVup7pZj3p1l25yYt5Xqbjnm3Vm2zYl5W6nulluEuR493e0fOREgQIAAAQIECBAgQIAAAQIECBAgQIAAAQIEehXYrUfPjh07OtuAEpnqMs+2G7eqZRcf5kVi8Y/L/K6VT2d/F4nFP9rf3f2PaLu3lmm+zLKLj+O7SCz+0f52fC/+W7a+BMf3eo9F/uX4dnwv8vs1Km/H9yiVxbzm+HZ8L+abNT5Xx/d4m67fcXw7vrv+Tm2Un+N7I6Hu3nd8d39869HT3fdTTgQIECBAgAABAgQIECBAgAABAgQIECBAgACBXgUEenrlVhgBAgQIECBAgAABAgQIECBAgAABAgQIECBAoDsBgZ7uLOVEgAABAgQIECBAgAABAgQIECBAgAABAgQIEOhVQKCnV26FESBAgAABAgQIECBAgAABAgQIECBAgAABAgS6ExDo6c5STgQIECBAgAABAgQIECBAgAABAgQIECBAgACBXgUEenrlVhgBAgQIECBAgAABAgQIECBAgAABAgQIECBAoDsBgZ7uLOVEgAABAgQIECBAgAABAgQIECBAgAABAgQIEOhVQKCnV26FESBAgAABAgQIECBAgAABAgQIECBAgAABAgS6ExDo6c5STgQIECBAgAABAgQIECBAgAABAgQIECBAgACBXgUEenrlVhgBAgQIECBAgAABAgQIECBAgAABAgQIECBAoDsBgZ7uLOVEgAABAgQIECBAgAABAgQIECBAgAABAgQIEOhVQKCnV26FESBAgAABAgQIECBAgAABAgQIECBAgAABAgS6ExDo6c5STgQIECBAgAABAgQIECBAgAABAgQIECBAgACBXgUEenrlVhgBAgQIECBAgAABAgQIECBAgAABAgQIECBAoDsBgZ7uLOVEgAABAgQIECBAgAABAgQIECBAgAABAgQIEOhVQKCnV26FESBAgAABAgQIECBAgAABAgQIECBAgAABAgS6ExDo6c5STgQIECBAgAABAgQIECBAgAABAgQIECBAgACBXgUEenrlVhgBAgQIECBAgAABAgQIECBAgAABAgQIECBAoDsBgZ7uLOVEgAABAgQIECBAgAABAgQIECBAgAABAgQIEOhVQKCnV26FESBAgAABAgQIECBAgAABAgQIECBAgAABAgS6ExDo6c5STgQIECBAgAABAgQIECBAgAABAgQIECBAgACBXgUEenrlVhgBAgQIECBAgAABAgQIECBAgAABAgQIECBAoDsBgZ7uLOVEgAABAgQIECBAgAABAgQIECBAgAABAgQIEOhVQKCnV26FESBAgAABAgQIECBAgAABAgQIECBAgAABAgS6ExDo6c5STgQIECBAgAABAgQIECBAgAABAgQIECBAgACBXgUEenrlVhgBAgQIECBAgAABAgQIECBAgAABAgQIECBAoDsBgZ7uLOVEgAABAgQIECBAgAABAgQIECBAgAABAgQIEOhVoBnoOXut5PxIBAgQIECAAAECBAgQIECAAAECBAgQIECAAAECm1NgXTxnz7VtLC/k8aydO3d2vtmLyLPtRiq7rVR3yzHvzrJtTszbSnW3HPPuLNvmxLytVHfLMe/Osm1OzNtKdbcc8+4s2+bEvK1Ud8sx786ybU7M20p1txzz7izb5sS8rVR3yzHvzrJtTszbSnW3HPPuLNvmxLytVHfLdWR+1toWDWI7pUdPHeRZe+PMM84446TuNllOBAgQIECAAAECBAgQIECAAAECBAgQIECAAAECXQicE8M5cy2vEuypSo+evJCfM84888zP/+Zv/ubBXRRYIlM7duzoIrup8ljVsgsS8yKx+MdlftfKp7O/i8TiH+1v9fniv2XrS3B8r/dY5F+Ob8f3Ir9fo/J2fI9SWcxrjm/H92K+WeNzdXyPt+n6Hce347vr79RG+Tm+NxLq7n3Ht+O7u29Tu5wc3+2culjK8T3f8X3yySd/fm0/nLH2U+I6Z6dHz6A3T9484ogjnnXWWWedvPZcIkCAAAECBAgQIECAAAECBAgQIECAAAECBAgQ2AQCid0khrO2KQn0DHr1lEBPgj1549eHHXbYD17ykpcctBYVOsowbmsiEgECBAgQIECAAAECBAgQIECAAAECBAgQIEBgSQKJ1SRmk9hNYjhrm/HrtZ/EdOp5evZYe1J+zr32PD/nOecnw7rlJ68lIJTlJAIECBAgQIAAAQIECBAgQIAAAQIECBAgQIAAgcULrBuRba24usPO2mMCPenRk5+zE8hJKgs3n2eFBHhKkEegJzoSAQIECBAgQIAAAQIECBAgQIAAAQIECBAgQGDxAnWPnbViynw8CewkdlP+zvuDXjoliJPHEtgR5ImQRIAAAQIECBAgQIAAAQIECBAgQIAAAQIECBBYjsBwsKd03KmDPGubdHYJ8GTzhp/n7/JaecxyEgECBAgQIECAAAECBAgQIECAAAECBAgQIECAwOIFBgGdtaJK0KeUWr/3/wHam9bGCvLK/gAAAABJRU5ErkJggg==;" vertex="1" parent="1">
          <mxGeometry x="80" y="130" width="521.38" height="100" as="geometry" />
        </mxCell>
      </root>
    </mxGraphModel>
  </diagram>
</mxfile>
